<?xml version="1.0" standalone="no"?>
<!DOCTYPE svg PUBLIC "-//W3C//DTD SVG 20010904//EN"
 "http://www.w3.org/TR/2001/REC-SVG-20010904/DTD/svg10.dtd">
<svg version="1.0" xmlns="http://www.w3.org/2000/svg"
 width="617.000000pt" height="104.000000pt" viewBox="0 0 617.000000 104.000000"
 preserveAspectRatio="xMidYMid meet">

<g transform="translate(0.000000,104.000000) scale(0.100000,-0.100000)"
fill="#000000" stroke="none">
<path d="M4658 1026 c-21 -8 -38 -10 -38 -5 0 16 -16 10 -43 -15 -14 -13 -28
-22 -31 -19 -3 3 -15 -11 -27 -32 -15 -25 -24 -33 -30 -24 -4 7 -10 -7 -15
-36 -5 -39 -9 -45 -18 -33 -6 8 -18 15 -26 16 -8 1 -28 4 -45 6 -49 8 -135 -5
-135 -20 0 -8 -7 -14 -17 -14 -17 0 -128 -79 -120 -86 2 -3 24 0 48 5 24 5 48
6 54 2 5 -5 22 -11 38 -15 15 -3 27 -11 27 -16 0 -6 8 -10 17 -10 14 0 14 -3
-5 -20 -12 -11 -25 -20 -29 -20 -12 -1 -88 -60 -77 -60 5 0 2 -5 -6 -10 -8 -5
-52 -10 -98 -10 l-83 0 3 -47 3 -48 43 -3 42 -3 0 -165 0 -164 -45 0 -45 0 0
-50 0 -50 155 0 155 0 0 50 0 50 -45 0 -45 0 0 164 0 164 35 4 c29 3 34 1 29
-11 -12 -29 -22 -96 -16 -101 4 -3 7 -9 8 -15 2 -24 28 -95 35 -95 4 0 11 15
14 33 8 35 69 102 85 92 6 -3 10 1 10 9 0 9 3 16 8 16 4 0 18 16 31 35 13 19
32 35 42 35 18 0 19 -12 19 -215 l0 -215 60 0 60 0 0 215 c0 207 1 215 20 215
30 0 70 -22 71 -39 0 -9 3 -11 5 -4 5 10 54 -29 54 -43 0 -3 6 -12 14 -20 10
-10 13 -28 10 -59 -3 -25 -3 -45 0 -45 3 0 17 21 32 46 l27 45 18 -53 c10 -30
31 -64 48 -80 60 -53 169 -64 245 -23 l46 24 0 -34 c0 -80 -42 -115 -138 -115
-43 0 -72 7 -108 25 -27 14 -50 25 -51 25 -2 0 -12 -18 -23 -41 -20 -39 -21
-42 -4 -60 10 -11 49 -29 87 -41 122 -37 249 -12 310 62 47 55 57 114 57 332
l0 198 -65 0 -65 0 0 -105 c0 -72 -5 -115 -14 -133 -36 -71 -156 -76 -196 -9
-25 41 -30 190 -6 181 15 -6 14 -2 -9 86 -12 43 -35 90 -45 90 -6 0 -10 5 -10
11 0 5 5 7 10 4 6 -3 10 -2 10 2 0 5 -18 20 -39 33 -21 14 -37 28 -34 33 2 4
-8 12 -24 17 -15 6 -38 15 -50 22 -12 6 -33 8 -46 6 -19 -4 -24 -1 -20 10 5
11 0 13 -18 9 -19 -5 -19 -4 4 5 15 7 27 18 27 25 0 17 25 16 75 -2 22 -8 42
-15 43 -15 2 0 -8 14 -23 32 -45 54 -108 98 -139 98 -24 0 -27 2 -16 15 16 19
0 19 -52 1z m195 -386 c4 0 5 6 1 13 -5 8 -2 8 9 -2 9 -7 17 -10 17 -5 0 4 5
3 12 -4 7 -7 22 -12 35 -12 13 0 23 -4 23 -10 0 -5 -13 -7 -28 -5 -37 4 -57
-8 -48 -30 5 -15 4 -16 -9 -5 -8 7 -15 18 -15 25 0 7 -7 18 -15 25 -8 7 -15
17 -15 23 0 7 4 7 12 -1 7 -7 16 -12 21 -12z"/>
<path d="M2355 641 c-86 -22 -168 -92 -204 -171 -14 -31 -21 -66 -21 -116 0
-157 111 -279 265 -291 75 -6 129 8 191 50 68 46 72 55 39 106 l-27 43 -29
-35 c-83 -101 -260 -82 -320 34 -24 49 -27 134 -6 176 33 63 113 113 179 113
48 -1 108 -31 148 -76 20 -22 68 -92 108 -156 81 -130 138 -195 203 -230 36
-19 60 -23 129 -23 77 0 90 3 140 31 61 34 121 105 139 164 6 20 11 66 11 101
0 182 -172 318 -352 280 -54 -12 -152 -70 -162 -97 -3 -9 6 -35 20 -59 l25
-44 32 36 c37 42 98 72 145 73 67 0 146 -50 179 -115 33 -63 11 -178 -44 -227
-29 -27 -88 -48 -133 -48 -92 0 -146 47 -253 220 -84 135 -144 203 -209 236
-52 26 -144 38 -193 25z"/>
<path d="M1099 606 c-90 -32 -143 -87 -175 -180 -31 -91 4 -219 78 -281 89
-75 226 -93 329 -42 31 15 63 35 72 45 16 17 14 21 -23 57 l-39 38 -31 -26
c-35 -30 -85 -42 -138 -33 -124 20 -177 186 -89 280 59 62 148 71 222 21 l36
-25 40 32 c21 17 39 35 39 39 0 12 -80 64 -119 77 -45 16 -157 14 -202 -2z"/>
<path d="M1624 591 c-107 -50 -161 -146 -152 -265 13 -151 126 -250 288 -250
161 0 275 99 287 248 14 172 -107 296 -287 296 -62 0 -86 -5 -136 -29z m185
-81 c68 -19 113 -84 113 -161 0 -96 -68 -168 -160 -169 -149 0 -221 171 -121
285 43 49 101 64 168 45z"/>
<path d="M3615 603 c-16 -8 -38 -22 -47 -31 -17 -14 -18 -13 -18 11 0 26 -2
27 -60 27 l-60 0 0 -265 0 -265 59 0 59 0 4 179 c3 203 10 223 83 250 32 13
43 13 79 0 68 -23 76 -52 76 -256 l0 -173 60 0 60 0 0 189 c0 237 -15 288
-100 331 -49 25 -151 27 -195 3z"/>
</g>
</svg>
